<svg width="730" height="179" viewBox="0 0 730 179" fill="none" xmlns="http://www.w3.org/2000/svg">
<path d="M0 8C0 12.4183 3.58172 16 8 16C12.4183 16 16 12.4183 16 8C16 3.58172 12.4183 0 8 0C3.58172 0 0 3.58172 0 8ZM8 8L8 9.5C215.185 9.49997 365.643 20.0606 473.63 35.8903C581.647 51.7243 647.062 72.8159 684.242 93.8061C721.522 114.853 729.846 135.398 725.409 150.162C720.901 165.165 702.936 175.5 684.898 175.5L684.898 177L684.898 178.5C703.773 178.5 723.269 167.709 728.282 151.025C733.368 134.102 723.275 112.397 685.717 91.1937C648.059 69.9339 582.214 48.7755 474.065 32.922C365.887 17.0643 215.275 6.49997 8 6.5L8 8Z" fill="#1A314A"/>
</svg>
