<svg width="730" height="180" viewBox="0 0 730 180" fill="none" xmlns="http://www.w3.org/2000/svg">
<path d="M713.507 8C713.507 12.4183 717.089 16 721.507 16C725.926 16 729.507 12.4183 729.507 8C729.507 3.58172 725.926 0 721.507 0C717.089 0 713.507 3.58172 713.507 8ZM44.6098 179.5H46.1098V176.5H44.6098V178V179.5ZM721.507 8L721.507 6.5C514.232 6.5 363.619 17.1269 255.441 33.0786C147.291 49.0259 81.4455 70.3098 43.7871 91.6957C6.22498 113.027 -3.85706 134.856 1.22442 151.867C6.23568 168.642 25.7284 179.5 44.6098 179.5V178V176.5C26.5767 176.5 8.6095 166.108 4.09891 151.008C-0.341475 136.144 7.99273 115.473 45.2686 94.3044C82.4482 73.1903 147.862 51.9741 255.878 36.0465C363.865 20.1231 514.322 9.5 721.507 9.5L721.507 8Z" fill="#1A314A"/>
</svg>
